<svg id="Layer_1" data-name="Layer 1" xmlns="http://www.w3.org/2000/svg" viewBox="0 0 30.53 18.47"><defs><style>.cls-1,.cls-7{fill:#c61609;}.cls-1,.cls-4,.cls-6{stroke:#fff;stroke-miterlimit:10;}.cls-1,.cls-4{stroke-width:0.5px;}.cls-2,.cls-5{fill:#fff;}.cls-3{fill:none;}.cls-5{font-size:3.93px;font-family:AzonixRegular, Azonix;}.cls-6{stroke-width:0.25px;}</style></defs><rect class="cls-1" x="3.51" y="3.33" width="25.58" height="9.05"/><path class="cls-2" d="M7.55,7.84v.57H9.24v1H7.55a1.7,1.7,0,0,1-1.7-1.58H4.91a2.65,2.65,0,0,0,2.64,2.53h2.64V7.84Z"/><rect class="cls-3" x="7.55" y="7.47" width="2.64" height="0.38"/><path class="cls-2" d="M10.19,4.92v.94H7.55a1.7,1.7,0,0,0-1.7,1.7v.12H4.91a.49.49,0,0,1,0-.12A2.65,2.65,0,0,1,7.55,4.92Z"/><path class="cls-2" d="M15.56,9.42l-.81-1.58H13.69l.81,1.58.48.95H16Zm-4.43,0-.48.95h1.06l.48-.95L13,7.84H11.94Z"/><polygon class="cls-2" points="14.75 7.68 13.69 7.68 13.34 7 12.99 7.68 11.94 7.68 13.34 4.92 14.75 7.68"/><path class="cls-2" d="M20.83,7.84v2.53h1V7.84Zm-1.7.46.6-.46H18.54Zm-2.64,2.07h1V7.84h-1Z"/><polygon class="cls-2" points="21.78 4.92 21.78 7.68 20.83 7.68 20.83 6.84 19.9 7.55 19.73 7.68 18.54 7.68 18.36 7.55 17.43 6.84 17.43 7.68 16.49 7.68 16.49 4.92 17.43 5.64 19.13 6.95 20.83 5.64 21.78 4.92"/><path class="cls-2" d="M24,9.42a.49.49,0,0,1-.49-.48v-1h3.4v-.1H22.54v1.1A1.43,1.43,0,0,0,24,10.37h3.86V9.42Z"/><path class="cls-2" d="M23.47,6.35v.49h3.4v.84H22.54V6.35A1.42,1.42,0,0,1,24,4.92h3.86v.94H24A.49.49,0,0,0,23.47,6.35Z"/><rect class="cls-4" x="3.51" y="12.37" width="25.58" height="4.99"/><text class="cls-5" transform="translate(5.22 16.02)">republic</text><path class="cls-6" d="M5.26,4.63,4.7,5A1.51,1.51,0,0,0,4,6.15,8.57,8.57,0,0,1,3.79,7a1,1,0,0,1-.14.28.46.46,0,0,1-.72.15A1.8,1.8,0,0,1,2.48,7a5.38,5.38,0,0,1-1-2.72,2.06,2.06,0,0,1,.09-.78,1.06,1.06,0,0,1,1.4-.65.42.42,0,0,0,.42,0l1.26-.76a.39.39,0,0,0,.2-.31A1.09,1.09,0,0,1,6.24.85a3,3,0,0,1,1.15.72A5.47,5.47,0,0,1,8.68,3.26a2.15,2.15,0,0,1,.18.61.46.46,0,0,1-.48.58,3.51,3.51,0,0,1-.79-.12,3.57,3.57,0,0,1-.46-.16,1.4,1.4,0,0,0-1.23.08l-.63.38ZM2.49,4.47l-.13.08c-.27.17-.27.18-.09.45a.14.14,0,0,0,.21,0l.27-.16L2.83,5c.16.26.18.27.44.09h0a.13.13,0,0,0,0-.2l-.16-.27.25-.16a.16.16,0,0,0,.07-.24L3.4,4.11a.15.15,0,0,0-.23-.05l-.26.16L2.8,4c-.12-.21-.14-.21-.35-.08l0,0a.16.16,0,0,0-.06.26A2.55,2.55,0,0,1,2.49,4.47Zm3-2.17A.35.35,0,0,0,6,2.42a.36.36,0,0,0,.11-.48.34.34,0,0,0-.48-.12A.33.33,0,0,0,5.53,2.3Zm.55.92a.35.35,0,0,0,.48.13.36.36,0,0,0,.12-.49.35.35,0,1,0-.6.36Zm.49-.92a.36.36,0,0,0,.48.12.37.37,0,0,0,.12-.49.37.37,0,0,0-.49-.12A.35.35,0,0,0,6.57,2.3Zm-1,1.79L5.39,3.8l-.94.57.17.29Z"/><path class="cls-7" d="M2.49,4.47a2.55,2.55,0,0,0-.14-.24A.16.16,0,0,1,2.41,4l0,0c.21-.13.23-.13.35.08l.11.19.26-.16a.15.15,0,0,1,.23.05l.09.13a.16.16,0,0,1-.07.24l-.25.16.16.27a.13.13,0,0,1,0,.2h0C3,5.3,3,5.29,2.83,5l-.08-.14-.27.16a.14.14,0,0,1-.21,0c-.18-.27-.18-.28.09-.45Z"/><path class="cls-2" d="M5.53,2.3a.33.33,0,0,1,.11-.48.34.34,0,0,1,.48.12A.36.36,0,0,1,6,2.42.35.35,0,0,1,5.53,2.3Z"/><path class="cls-2" d="M6.08,3.22a.35.35,0,1,1,.6-.36.36.36,0,0,1-.12.49A.35.35,0,0,1,6.08,3.22Z"/><path class="cls-2" d="M6.57,2.3a.35.35,0,0,1,.11-.49.37.37,0,0,1,.49.12.37.37,0,0,1-.12.49A.36.36,0,0,1,6.57,2.3Z"/><path class="cls-2" d="M5.56,4.09l-.94.57-.17-.29.94-.57Z"/></svg>